<svg width="180" height="180" viewBox="0 0 100 100" xmlns="http://www.w3.org/2000/svg" aria-hidden="true">
  <style>
    .dog-head { fill: #f0e6d6; stroke: #343A40; stroke-width: 2.5; stroke-linejoin: round; }
    .dog-features { fill: #343A40; }
    .dog-nose { fill: #343A40; }
  </style>
  <!-- Head shape -->
  <path class="dog-head" d="M50 20 C 25 20, 15 45, 15 65 C 15 90, 35 100, 50 100 C 65 100, 85 90, 85 65 C 85 45, 75 20, 50 20 Z" />
  <!-- Ears -->
  <path class="dog-head" d="M20 55 C 5 45, 5 25, 25 25 C 30 25, 25 55, 20 55Z" />
  <path class="dog-head" d="M80 55 C 95 45, 95 25, 75 25 C 70 25, 75 55, 80 55Z" />
  <!-- Eyes -->
  <circle class="dog-features" cx="38" cy="58" r="4" />
  <circle class="dog-features" cx="62" cy="58" r="4" />
  <!-- Nose -->
  <path class="dog-nose" d="M50 75 C 45 80, 55 80, 50 75 L 48 70 L 52 70 Z" />
</svg>