<?xml version="1.0" encoding="UTF-8"?>
<svg xmlns="http://www.w3.org/2000/svg" width="64" height="64" viewBox="0 0 64 64" aria-labelledby="title desc" role="img">
  <title>Study App Favicon - Brain</title>
  <desc>Minimalist brain icon optimized for small sizes.</desc>
  <defs>
    <style>
      .outline{fill:none;stroke:#9B1C6A;stroke-width:4;stroke-linecap:round;stroke-linejoin:round}
    </style>
  </defs>
  <!-- Background is transparent on purpose for better theme compatibility -->
  <!-- Brain base -->
  <path d="M32 10
           c-4.5 0-8 3.6-8 8
           c-4.4 0-8 3.6-8 8
           c0 4 2.4 7.2 5.7 8.2
           c-1.4 1.5-2.3 3.6-2.3 5.8
           c0 4.7 3.8 8.5 8.5 8.5
           h4.3
           v-38.5z"
        fill="#FF7693" stroke="#9B1C6A" stroke-width="4" stroke-linejoin="round"/>
  <path d="M32 10
           c4.5 0 8 3.6 8 8
           c4.4 0 8 3.6 8 8
           c0 4-2.4 7.2-5.7 8.2
           c1.4 1.5 2.3 3.6 2.3 5.8
           c0 4.7-3.8 8.5-8.5 8.5
           h-4.3
           v-38.5z"
        fill="#FF5C85" stroke="#9B1C6A" stroke-width="4" stroke-linejoin="round"/>
  <!-- Central groove -->
  <line x1="32" y1="12" x2="32" y2="52" class="outline"/>
  <!-- Minimal folds (kept thick for 16px clarity) -->
  <path d="M24 22c-3 0-5 2-5 4" class="outline"/>
  <path d="M24 30c-3 0-5 2-5 4" class="outline"/>
  <path d="M40 22c3 0 5 2 5 4" class="outline"/>
  <path d="M40 30c3 0 5 2 5 4" class="outline"/>
</svg>
